<?xml version="1.0" encoding="UTF-8"?>
<svg version="1.1" xmlns="http://www.w3.org/2000/svg" width="301" height="262">
<path d="M0 0 C0.53592773 0.47324707 1.07185547 0.94649414 1.62402344 1.43408203 C3.0891669 2.71574109 4.58269682 3.96474735 6.078125 5.2109375 C28.08863181 24.05469048 41.42393608 53.42870435 44.01660156 82.06835938 C46.34943556 117.83848063 38.27051466 152.42825306 14.4296875 180.09765625 C11.76684659 183.08351963 8.99084521 185.94699232 6.1953125 188.80859375 C5.45667969 189.60910156 4.71804687 190.40960938 3.95703125 191.234375 C-15.99117855 212.34957331 -47.32643363 224.49819185 -76.02954102 225.91870117 C-111.27508985 226.84038219 -144.45839403 217.41135589 -170.65625 192.9140625 C-196.28476946 167.79811342 -212.72193632 137.14800068 -213.18530273 100.45849609 C-213.1278235 63.09699542 -200.89133719 31.98112666 -174.6796875 5.18359375 C-127.41952653 -41.82082477 -49.91215819 -43.74632068 0 0 Z " fill="#FC831A" transform="translate(232.8046875,32.19140625)"/>
<path d="M0 0 C1.49249268 0.01571045 1.49249268 0.01571045 3.01513672 0.03173828 C4.6296875 0.04140625 4.6296875 0.04140625 6.27685547 0.05126953 C7.40478516 0.06802734 8.53271484 0.08478516 9.69482422 0.10205078 C11.39832031 0.11558594 11.39832031 0.11558594 13.13623047 0.12939453 C15.94763721 0.1530198 18.7586272 0.18596065 21.56982422 0.22705078 C21.86228027 0.9436084 22.15473633 1.66016602 22.45605469 2.3984375 C23.78046395 5.63512351 25.11253934 8.86859904 26.44482422 12.10205078 C26.90501953 13.22998047 27.36521484 14.35791016 27.83935547 15.52001953 C28.28408203 16.59638672 28.72880859 17.67275391 29.18701172 18.78173828 C29.5954834 19.7767334 30.00395508 20.77172852 30.42480469 21.796875 C31.45415202 24.3368942 31.45415202 24.3368942 33.56982422 26.22705078 C41.76942531 27.27380837 49.15527261 23.41229751 56.38232422 19.91455078 C60.17466948 18.20427743 62.52596506 17.75655654 66.56982422 19.22705078 C70.32759879 21.79333585 73.40060944 24.97443561 76.56982422 28.22705078 C77.11251953 28.69498047 77.65521484 29.16291016 78.21435547 29.64501953 C79.56982422 31.22705078 79.56982422 31.22705078 79.63232422 34.97705078 C78.90052532 40.15011199 76.78543083 44.71644796 74.73754883 49.47241211 C72.31685745 55.32149348 71.59341806 60.89210397 71.56982422 67.22705078 C72.17826172 67.36240234 72.78669922 67.49775391 73.41357422 67.63720703 C82.31782112 69.82398531 90.23573925 73.45178152 98.56982422 77.22705078 C98.56982422 85.14705078 98.56982422 93.06705078 98.56982422 101.22705078 C80.42696708 109.9413365 80.42696708 109.9413365 72.56982422 112.22705078 C71.47802573 120.40687436 73.41981634 126.22855518 77.07983398 133.39111328 C79.50093122 138.29372728 80.39331632 141.74432707 79.56982422 147.22705078 C77.932733 149.993083 75.88526425 152.07889336 73.56982422 154.28955078 C73.01681641 154.881875 72.46380859 155.47419922 71.89404297 156.08447266 C68.65930277 159.27831384 67.31962525 160.21517275 62.62451172 160.28955078 C57.78104521 159.24075489 53.26949998 157.29193886 48.74560547 155.31103516 C43.28058214 153.08514301 38.43196921 152.90873405 32.56982422 153.22705078 C30.92190377 156.99697542 29.27684659 160.76814273 27.63232422 164.53955078 C27.16375 165.61140625 26.69517578 166.68326172 26.21240234 167.78759766 C25.76445312 168.815625 25.31650391 169.84365234 24.85498047 170.90283203 C24.44127197 171.8506958 24.02756348 172.79855957 23.60131836 173.77514648 C22.50564589 176.29226876 22.50564589 176.29226876 21.56982422 179.22705078 C13.64982422 179.22705078 5.72982422 179.22705078 -2.43017578 179.22705078 C-5.81197627 171.86666148 -9.0543475 164.46548808 -12.19580078 157.00048828 C-13.16825225 154.36947723 -13.16825225 154.36947723 -14.43017578 153.22705078 C-22.51287698 151.79590852 -28.68138372 154.2064603 -35.77026367 157.73681641 C-39.79152444 159.70363403 -42.85390518 161.00759762 -47.43017578 160.22705078 C-50.06298828 158.39892578 -50.06298828 158.39892578 -52.55517578 155.97705078 C-53.79654297 154.79369141 -53.79654297 154.79369141 -55.06298828 153.58642578 C-55.84416016 152.80783203 -56.62533203 152.02923828 -57.43017578 151.22705078 C-58.57099609 150.30666016 -58.57099609 150.30666016 -59.73486328 149.36767578 C-61.43017578 147.22705078 -61.43017578 147.22705078 -61.89892578 143.99267578 C-61.24764561 138.76072505 -59.20467572 134.59986341 -56.91845703 129.89501953 C-54.22866815 123.93356907 -54.04980133 118.71454829 -54.43017578 112.22705078 C-55.03490723 112.00041748 -55.63963867 111.77378418 -56.26269531 111.5402832 C-59.02812744 110.50172392 -61.79165407 109.45818233 -64.55517578 108.41455078 C-65.50650391 108.058125 -66.45783203 107.70169922 -67.43798828 107.33447266 C-68.36611328 106.98320312 -69.29423828 106.63193359 -70.25048828 106.27001953 C-71.52303467 105.79085083 -71.52303467 105.79085083 -72.82128906 105.30200195 C-75.75674236 104.09249411 -78.59048632 102.64689551 -81.43017578 101.22705078 C-81.43017578 93.63705078 -81.43017578 86.04705078 -81.43017578 78.22705078 C-77.51763207 76.3844461 -73.60061965 74.5527037 -69.68017578 72.72705078 C-68.56900391 72.20240234 -67.45783203 71.67775391 -66.31298828 71.13720703 C-64.70810547 70.39277344 -64.70810547 70.39277344 -63.07080078 69.63330078 C-62.0862793 69.17246094 -61.10175781 68.71162109 -60.08740234 68.23681641 C-57.43017578 67.22705078 -57.43017578 67.22705078 -53.43017578 67.22705078 C-52.83477494 59.27183404 -54.83406616 53.62279471 -57.93017578 46.35205078 C-58.77819758 44.31476117 -59.62214908 42.27577106 -60.46142578 40.23486328 C-60.83847656 39.34428223 -61.21552734 38.45370117 -61.60400391 37.53613281 C-62.43017578 35.22705078 -62.43017578 35.22705078 -62.43017578 32.22705078 C-60.92626953 30.64892578 -60.92626953 30.64892578 -58.86767578 28.97705078 C-54.82422924 25.59670064 -51.10290366 22.00307413 -47.43017578 18.22705078 C-41.92402478 19.72540603 -36.75343152 21.48609006 -31.55517578 23.85205078 C-25.5399476 26.45344167 -19.94086611 27.10006923 -13.43017578 27.22705078 C-13.28322266 26.59541016 -13.13626953 25.96376953 -12.98486328 25.31298828 C-6.79761159 0.63509933 -6.79761159 0.63509933 0 0 Z " fill="#030100" transform="translate(139.43017578125,39.77294921875)"/>
<path d="M0 0 C0.7101123 0.00418945 1.42022461 0.00837891 2.15185547 0.01269531 C11.86253896 0.22124095 18.52062505 3.15987809 25.8125 9.5625 C33.27999844 17.98737003 35.74502482 26.17834696 35.4921875 37.359375 C34.71797488 46.79977409 30.20664392 53.76230089 23.296875 60.10546875 C14.35000699 67.23830643 5.3816954 68.37343137 -5.76757812 67.57128906 C-10.40967451 66.96530111 -13.98778198 64.98154524 -17.75 62.3125 C-18.39195312 61.8896875 -19.03390625 61.466875 -19.6953125 61.03125 C-25.80580954 56.48144268 -29.37623614 49.43379158 -31.75 42.3125 C-32.60604279 29.94899681 -31.5037866 20.13863092 -23.5234375 10.1328125 C-16.91738458 3.35215025 -9.41346198 -0.0752192 0 0 Z " fill="#FB831B" transform="translate(146.75,95.6875)"/>
<path d="M0 0 C17.04781157 -0.56477413 17.04781157 -0.56477413 25 3 C25.66 3.66 26.32 4.32 27 5 C20.8887076 3.9611908 14.92295536 2.84269722 9 1 C9 1.99 9 2.98 9 4 C6.15501823 5.97568178 3.11743233 7.49901406 0 9 C-0.33 8.01 -0.66 7.02 -1 6 C-0.01 6 0.98 6 2 6 C2 5.34 2 4.68 2 4 C1.34 3.67 0.68 3.34 0 3 C0 2.01 0 1.02 0 0 Z " fill="#F2801F" transform="translate(139,96)"/>
<path d="M0 0 C0.66 0 1.32 0 2 0 C1.44147333 5.4367976 0.06042383 9.9183367 -2.0625 14.9375 C-2.34416016 15.62134766 -2.62582031 16.30519531 -2.91601562 17.00976562 C-3.6035405 18.67613946 -4.30076175 20.33850727 -5 22 C-6.0859375 20.203125 -6.0859375 20.203125 -7 18 C-5.625 14.75 -5.625 14.75 -4 12 C-4.99 12 -5.98 12 -7 12 C-6.30058404 8.85262818 -5.23921302 5.97411124 -4 3 C-3.01 3.33 -2.02 3.66 -1 4 C-0.67 2.68 -0.34 1.36 0 0 Z " fill="#F0862A" transform="translate(271,160)"/>
<path d="M0 0 C0 0.99 0 1.98 0 3 C-2.31 3.66 -4.62 4.32 -7 5 C-7.77234239 7.74499843 -8.12807679 10.19019267 -8.1328125 13.0390625 C-8.13410156 13.78414062 -8.13539062 14.52921875 -8.13671875 15.296875 C-8.13285156 16.06515625 -8.12898438 16.8334375 -8.125 17.625 C-8.12886719 18.40101563 -8.13273437 19.17703125 -8.13671875 19.9765625 C-8.23159425 24.12069379 -8.23159425 24.12069379 -7 28 C-8.32 27.67 -9.64 27.34 -11 27 C-11 19.41 -11 11.82 -11 4 C-2 0 -2 0 0 0 Z " fill="#361505" transform="translate(69,114)"/>
<path d="M0 0 C0.33 0 0.66 0 1 0 C1.11591764 4.10393012 1.18715601 8.20744106 1.25 12.3125 C1.28351563 13.47974609 1.31703125 14.64699219 1.3515625 15.84960938 C1.36445313 16.96787109 1.37734375 18.08613281 1.390625 19.23828125 C1.41157227 20.26993408 1.43251953 21.30158691 1.45410156 22.36450195 C1 25 1 25 -0.84472656 26.77416992 C-8.06439456 30.88041743 -16.1924361 33.26031392 -24 36 C-24.66 35.34 -25.32 34.68 -26 34 C-24.9378125 33.61328125 -23.875625 33.2265625 -22.78125 32.828125 C-15.64295482 30.20462015 -8.75624615 27.513248 -2 24 C-1.34 24 -0.68 24 0 24 C0 16.08 0 8.16 0 0 Z " fill="#DE8131" transform="translate(238,117)"/>
<path d="M0 0 C0.33 0.66 0.66 1.32 1 2 C1.556875 1.91621094 2.11375 1.83242188 2.6875 1.74609375 C8.05791108 1.02943416 12.65383432 1.12517289 18 2 C18 2.66 18 3.32 18 4 C17.02389771 4.01401855 17.02389771 4.01401855 16.02807617 4.02832031 C13.08044494 4.08199493 10.13440607 4.1656455 7.1875 4.25 C6.16333984 4.26417969 5.13917969 4.27835938 4.08398438 4.29296875 C3.10107422 4.32519531 2.11816406 4.35742188 1.10546875 4.390625 C0.19949951 4.41157227 -0.70646973 4.43251953 -1.63989258 4.45410156 C-4.13912106 4.80104646 -4.13912106 4.80104646 -5.74487305 6.86621094 C-7.10310916 9.17529159 -8.09092441 11.48255991 -9 14 C-9.33 14 -9.66 14 -10 14 C-10.0880829 8.89119171 -10.0880829 8.89119171 -9 6 C-6.25284609 3.52237817 -3.2563024 1.73669461 0 0 Z " fill="#EE8329" transform="translate(142,35)"/>
<path d="M0 0 C3.625 0.25 3.625 0.25 5.3125 1.6875 C5.745625 2.203125 6.17875 2.71875 6.625 3.25 C8.72832891 3.96447643 8.72832891 3.96447643 10.625 4.25 C10.625 5.57 10.625 6.89 10.625 8.25 C11.388125 8.311875 12.15125 8.37375 12.9375 8.4375 C15.625 9.25 15.625 9.25 17.4375 11.4375 C18.77028737 14.59410166 18.8616951 16.85737019 18.625 20.25 C17.965 20.58 17.305 20.91 16.625 21.25 C16.604375 20.21875 16.58375 19.1875 16.5625 18.125 C15.44870725 13.52132332 14.08969192 12.4276071 10.45703125 9.66796875 C8.625 8.25 8.625 8.25 6.0625 5.4375 C3.1900821 2.85968906 1.40664949 2.58614662 -2.375 2.25 C-3.035 1.92 -3.695 1.59 -4.375 1.25 C-3.375 0.25 -3.375 0.25 0 0 Z " fill="#E8832D" transform="translate(202.375,56.75)"/>
<path d="M0 0 C0.99 0 1.98 0 3 0 C3.33 0.99 3.66 1.98 4 3 C4.66 3.66 5.32 4.32 6 5 C4.21427748 6.83947337 2.42197551 8.67157741 0.625 10.5 C0.11710937 11.02464844 -0.39078125 11.54929687 -0.9140625 12.08984375 C-2.23832604 13.43153181 -3.61605865 14.71995815 -5 16 C-5.66 16 -6.32 16 -7 16 C-7 15.34 -7 14.68 -7 14 C-6.34 14 -5.68 14 -5 14 C-4.7834375 13.071875 -4.7834375 13.071875 -4.5625 12.125 C-4 10 -4 10 -3 8 C-2.34 8 -1.68 8 -1 8 C-0.67 6.68 -0.34 5.36 0 4 C-0.66 3.67 -1.32 3.34 -2 3 C-1.34 2.34 -0.68 1.68 0 1 C0 0.67 0 0.34 0 0 Z " fill="#F68523" transform="translate(84,56)"/>
<path d="M0 0 C2.97 0.495 2.97 0.495 6 1 C6 1.66 6 2.32 6 3 C9.09950623 3.88873597 11.98504367 4.18543782 15.203125 4.31640625 C16.1828125 4.35830078 17.1625 4.40019531 18.171875 4.44335938 C19.18765625 4.48267578 20.2034375 4.52199219 21.25 4.5625 C22.796875 4.62727539 22.796875 4.62727539 24.375 4.69335938 C26.9165387 4.79925682 29.45817196 4.90133443 32 5 C25.84580063 8.40566414 17.86764006 7.86209424 11 7 C7.2888345 5.8199722 4.10045475 4.36840293 1 2 C0.67 1.34 0.34 0.68 0 0 Z " fill="#E28432" transform="translate(128,156)"/>
<path d="M0 0 C1.125 3.75 1.125 3.75 0 6 C-0.15067214 7.4465242 -0.24861036 8.8987934 -0.31640625 10.3515625 C-0.35830078 11.20234375 -0.40019531 12.053125 -0.44335938 12.9296875 C-0.48267578 13.81914063 -0.52199219 14.70859375 -0.5625 15.625 C-0.60568359 16.5221875 -0.64886719 17.419375 -0.69335938 18.34375 C-0.79956861 20.56234283 -0.90161194 22.7810488 -1 25 C-0.34 25 0.32 25 1 25 C0.67 26.65 0.34 28.3 0 30 C-4.35567061 23.46649409 -3.44508054 15.57378727 -3 8 C-2.28770297 4.99758519 -1.38527699 2.77055399 0 0 Z " fill="#DF8232" transform="translate(118,114)"/>
<path d="M0 0 C1.13643966 3.40931897 0.86747764 4.00335456 -0.4375 7.1875 C-0.86869141 8.26064453 -0.86869141 8.26064453 -1.30859375 9.35546875 C-1.65083984 10.16951172 -1.65083984 10.16951172 -2 11 C-10.30085731 11.51345509 -16.51935975 10.70721995 -24 7 C-20.61682513 6.02408417 -18.4342662 6.14143345 -15 7 C-15 7.66 -15 8.32 -15 9 C-11.37 9 -7.74 9 -4 9 C-4 8.34 -4 7.68 -4 7 C-3.34 7 -2.68 7 -2 7 C-1.34 4.69 -0.68 2.38 0 0 Z " fill="#D37A30" transform="translate(128,56)"/>
<path d="M0 0 C0 0.66 0 1.32 0 2 C-0.99 2 -1.98 2 -3 2 C-3 2.66 -3 3.32 -3 4 C-3.99 4.495 -3.99 4.495 -5 5 C-4.34 5.66 -3.68 6.32 -3 7 C-3.33 7.66 -3.66 8.32 -4 9 C-4.99 9 -5.98 9 -7 9 C-7.33 9.66 -7.66 10.32 -8 11 C-8.99 11 -9.98 11 -11 11 C-11 10.34 -11 9.68 -11 9 C-12.32 8.67 -13.64 8.34 -15 8 C-12.8782637 6.66121428 -10.75294812 5.32884524 -8.625 4 C-8.02171875 3.6184375 -7.4184375 3.236875 -6.796875 2.84375 C-2.2265625 0 -2.2265625 0 0 0 Z " fill="#F38526" transform="translate(90,15)"/>
<path d="M0 0 C0.33 0 0.66 0 1 0 C1.02686553 1.97909398 1.04633375 3.95828971 1.0625 5.9375 C1.07410156 7.03964844 1.08570313 8.14179687 1.09765625 9.27734375 C1 12 1 12 0 13 C-0.15825258 14.99782126 -0.25119171 17.00088834 -0.31640625 19.00390625 C-0.35830078 20.21884766 -0.40019531 21.43378906 -0.44335938 22.68554688 C-0.48267578 23.96494141 -0.52199219 25.24433594 -0.5625 26.5625 C-0.60568359 27.84576172 -0.64886719 29.12902344 -0.69335938 30.45117188 C-0.799848 33.63399853 -0.90185962 36.81690674 -1 40 C-1.33 40 -1.66 40 -2 40 C-2.05012431 36.07141081 -2.08605502 32.14295016 -2.10986328 28.21411133 C-2.12464917 26.23447104 -2.15008592 24.25491937 -2.17578125 22.27539062 C-2.21457958 14.61271989 -1.72892028 7.47412042 0 0 Z " fill="#E1883F" transform="translate(22,103)"/>
<path d="M0 0 C2.1640625 0.0234375 2.1640625 0.0234375 4.625 0.375 C5.85089844 0.54128906 5.85089844 0.54128906 7.1015625 0.7109375 C7.72804687 0.80632812 8.35453125 0.90171875 9 1 C2.19018801 4.71728269 -5.37110317 5.28255173 -13 5 C-13 4.34 -13 3.68 -13 3 C-12.22914063 2.95101562 -11.45828125 2.90203125 -10.6640625 2.8515625 C-9.66117188 2.77679688 -8.65828125 2.70203125 -7.625 2.625 C-6.62726563 2.55539063 -5.62953125 2.48578125 -4.6015625 2.4140625 C-1.84491121 2.23636036 -1.84491121 2.23636036 0 0 Z " fill="#E28534" transform="translate(173,252)"/>
<path d="M0 0 C0.99 0.495 0.99 0.495 2 1 C2 2.98 2 4.96 2 7 C2.66 7 3.32 7 4 7 C4 8.98 4 10.96 4 13 C4.66 13 5.32 13 6 13 C6 15.31 6 17.62 6 20 C6.66 20 7.32 20 8 20 C8 20.99 8 21.98 8 23 C7.34 23 6.68 23 6 23 C0.44419134 7.25512528 0.44419134 7.25512528 0 0 Z " fill="#E58936" transform="translate(23,155)"/>
<path d="M0 0 C0.66 0 1.32 0 2 0 C2 0.66 2 1.32 2 2 C3.98 1.67 5.96 1.34 8 1 C5.03352255 4.19249477 1.95036364 6.4592987 -1.75 8.75 C-2.73484375 9.36359375 -3.7196875 9.9771875 -4.734375 10.609375 C-5.48203125 11.06828125 -6.2296875 11.5271875 -7 12 C-7.66 11.01 -8.32 10.02 -9 9 C-8.05125 8.690625 -7.1025 8.38125 -6.125 8.0625 C-3.13919592 7.12605258 -3.13919592 7.12605258 -1 6 C-0.34227572 2.97065509 -0.34227572 2.97065509 0 0 Z " fill="#EB8930" transform="translate(222,228)"/>
<path d="M0 0 C4.03715781 3.53958093 5.00755817 7.851708 6 13 C6.22652239 17.01605318 6.18634739 20.98317854 6 25 C5.67 25 5.34 25 5 25 C5 21.37 5 17.74 5 14 C4.34 14 3.68 14 3 14 C2.67 12.02 2.34 10.04 2 8 C1.67 8 1.34 8 1 8 C0.67 5.36 0.34 2.72 0 0 Z " fill="#CE7729" transform="translate(176,111)"/>
<path d="M0 0 C-2.03876949 0.81974263 -4.08116075 1.6304807 -6.125 2.4375 C-7.26195313 2.88996094 -8.39890625 3.34242187 -9.5703125 3.80859375 C-12.74206741 4.91039927 -15.67942748 5.56095774 -19 6 C-19 6.66 -19 7.32 -19 8 C-19.99 8.33 -20.98 8.66 -22 9 C-22.66 8.34 -23.32 7.68 -24 7 C-21.22967112 5.8529341 -18.4587654 4.70729921 -15.6875 3.5625 C-14.90181641 3.23701172 -14.11613281 2.91152344 -13.30664062 2.57617188 C-12.54931641 2.26357422 -11.79199219 1.95097656 -11.01171875 1.62890625 C-10.31522217 1.34088135 -9.61872559 1.05285645 -8.90112305 0.75610352 C-5.40436843 -0.63460524 -3.59235744 -1.11486955 0 0 Z " fill="#E4883A" transform="translate(114,7)"/>
<path d="M0 0 C0.66 0 1.32 0 2 0 C1.67515625 0.85271484 1.67515625 0.85271484 1.34375 1.72265625 C-0.41470743 6.59911922 -1.70643395 10.75220495 -1 16 C0.85716187 18.90809543 0.85716187 18.90809543 3 21 C0 19.5 0 19.5 -3 18 C-3 14.04 -3 10.08 -3 6 C-2.34 6 -1.68 6 -1 6 C-1.0309375 4.7934375 -1.0309375 4.7934375 -1.0625 3.5625 C-1 1 -1 1 0 0 Z " fill="#DB8030" transform="translate(80,171)"/>
<path d="M0 0 C2.60417425 2.60417425 3.14988074 4.4033416 4 8 C3.87608911 11.03829496 3.49315245 14.00109999 3 17 C2.01 16.67 1.02 16.34 0 16 C0.495 15.1028125 0.495 15.1028125 1 14.1875 C2.20787988 11.94613529 2.20787988 11.94613529 2 9 C1.01 8.67 0.02 8.34 -1 8 C-0.67 5.36 -0.34 2.72 0 0 Z " fill="#D4792D" transform="translate(83,90)"/>
<path d="M0 0 C0.99386719 0.00902344 1.98773438 0.01804688 3.01171875 0.02734375 C4.15060547 0.04474609 4.15060547 0.04474609 5.3125 0.0625 C5.9725 1.3825 6.6325 2.7025 7.3125 4.0625 C6.3225 3.7325 5.3325 3.4025 4.3125 3.0625 C4.3125 2.4025 4.3125 1.7425 4.3125 1.0625 C-0.9961849 1.64424845 -0.9961849 1.64424845 -5.6875 4.0625 C-8.01949388 4.14155064 -10.35582622 4.15048769 -12.6875 4.0625 C-8.41027069 0.67021469 -5.42406114 -0.06381248 0 0 Z " fill="#DA7E2E" transform="translate(119.6875,191.9375)"/>
<path d="M0 0 C-1.55500981 3.81684226 -4.03595495 6.19195732 -7 9 C-7.33 8.34 -7.66 7.68 -8 7 C-10.52733235 6.34444881 -10.52733235 6.34444881 -13 6 C-12.484375 5.7525 -11.96875 5.505 -11.4375 5.25 C-9.36554929 4.18746118 -7.38020179 3.05551546 -5.375 1.875 C-2 0 -2 0 0 0 Z " fill="#210B02" transform="translate(169,157)"/>
<path d="M0 0 C1.65 0 3.3 0 5 0 C1.19791273 3.30616284 -4.83581485 7 -10 7 C-10 5.02 -10 3.04 -10 1 C-9.34 1 -8.68 1 -8 1 C-8 1.99 -8 2.98 -8 4 C-5.36 3.34 -2.72 2.68 0 2 C0 1.34 0 0.68 0 0 Z " fill="#E07F2B" transform="translate(68,111)"/>
<path d="M0 0 C7.44946212 -0.34033076 14.18029486 -0.33339848 21 3 C21.66 3.66 22.32 4.32 23 5 C21.18667846 4.69230293 19.37435655 4.37870936 17.5625 4.0625 C16.04849609 3.80146484 16.04849609 3.80146484 14.50390625 3.53515625 C12 3 12 3 11 2 C9.15108054 1.76636119 7.29511969 1.58696365 5.4375 1.4375 C4.42558594 1.35371094 3.41367188 1.26992187 2.37109375 1.18359375 C1.19740234 1.09271484 1.19740234 1.09271484 0 1 C0 0.67 0 0.34 0 0 Z " fill="#DD8332" transform="translate(143,96)"/>
<path d="M0 0 C0.99 0.99 1.98 1.98 3 3 C3.33 2.34 3.66 1.68 4 1 C4.66 1 5.32 1 6 1 C5.979375 2.216875 5.95875 3.43375 5.9375 4.6875 C5.93175884 7.91977322 6.21233685 10.84934741 7 14 C3.94998169 10.33997803 0 4.92148529 0 0 Z " fill="#E98B38" transform="translate(30,179)"/>
<path d="M0 0 C0.99 0 1.98 0 3 0 C3.93770846 3.31999482 4.75143398 6.55249736 5 10 C3.125 12.625 3.125 12.625 1 14 C0.34 13.67 -0.32 13.34 -1 13 C-0.34 12.34 0.32 11.68 1 11 C1.1971417 6.86002433 1.30765478 3.92296433 0 0 Z " fill="#DE812D" transform="translate(217,176)"/>
<path d="M0 0 C4.72065967 1.54269924 9.41664092 3.07794619 14 5 C14 5.33 14 5.66 14 6 C10.16774573 6.08912219 6.73437848 5.87867729 3 5 C2.67 4.01 2.34 3.02 2 2 C1.34 2 0.68 2 0 2 C0 1.34 0 0.68 0 0 Z " fill="#E4812A" transform="translate(62,143)"/>
<path d="M0 0 C2.08163365 3.12245047 3.32575613 6.07034881 4.6875 9.5625 C5.14511719 10.71878906 5.60273437 11.87507813 6.07421875 13.06640625 C7 16 7 16 6 18 C2.49876983 12.16461638 -0.41299865 7.02097701 0 0 Z " fill="#DD7F2B" transform="translate(76,72)"/>
<path d="M0 0 C2.93200474 2.85276137 5.64315404 5.65079784 8 9 C7.67 9.66 7.34 10.32 7 11 C6.01 11 5.02 11 4 11 C2 8 2 8 2 4 C1.34 4 0.68 4 0 4 C0 2.68 0 1.36 0 0 Z " fill="#E9832B" transform="translate(246,45)"/>
<path d="M0 0 C0.33 0.99 0.66 1.98 1 3 C-0.97845068 6.39162974 -3.0755255 9.36797295 -6 12 C-6.99 11.67 -7.98 11.34 -9 11 C-8.51789063 10.45730469 -8.03578125 9.91460937 -7.5390625 9.35546875 C-6.90742188 8.64003906 -6.27578125 7.92460937 -5.625 7.1875 C-4.68527344 6.12595703 -4.68527344 6.12595703 -3.7265625 5.04296875 C-1.859401 2.91196181 -1.859401 2.91196181 0 0 Z " fill="#260900" transform="translate(178,145)"/>
<path d="M0 0 C1.58502671 3.17005342 1.60385067 6.49124878 2 10 C2.99 9.67 3.98 9.34 5 9 C4.67 10.65 4.34 12.3 4 14 C3.34 14 2.68 14 2 14 C1.32694982 12.39850114 0.66177773 10.79368971 0 9.1875 C-0.37125 8.29417969 -0.7425 7.40085937 -1.125 6.48046875 C-2 4 -2 4 -2 1 C-1.34 0.67 -0.68 0.34 0 0 Z " fill="#250800" transform="translate(79,71)"/>
<path d="M0 0 C3.625 0.25 3.625 0.25 5.3125 1.6875 C5.745625 2.203125 6.17875 2.71875 6.625 3.25 C8.72832891 3.96447643 8.72832891 3.96447643 10.625 4.25 C10.625 5.9 10.625 7.55 10.625 9.25 C10.18929687 8.82847656 9.75359375 8.40695313 9.3046875 7.97265625 C5.47391233 4.44867476 2.99315964 2.62452277 -2.375 2.25 C-3.035 1.92 -3.695 1.59 -4.375 1.25 C-3.375 0.25 -3.375 0.25 0 0 Z " fill="#DA7D2E" transform="translate(202.375,56.75)"/>
<path d="M0 0 C0.763125 0.309375 1.52625 0.61875 2.3125 0.9375 C6.74196755 2.68868485 10.4331273 3.25717331 15.1875 3.5625 C17.09595703 3.68818359 17.09595703 3.68818359 19.04296875 3.81640625 C20.01878906 3.87699219 20.99460938 3.93757812 22 4 C22 4.33 22 4.66 22 5 C6.07061503 5.55353075 6.07061503 5.55353075 0 2 C0 1.34 0 0.68 0 0 Z " fill="#391000" transform="translate(131,159)"/>
<path d="M0 0 C1.485 0.99 1.485 0.99 3 2 C5.74518321 2.24187651 5.74518321 2.24187651 8.6875 2.125 C9.68136719 2.10695313 10.67523438 2.08890625 11.69921875 2.0703125 C12.45847656 2.04710938 13.21773437 2.02390625 14 2 C12.40895598 3.88936477 11.54329705 4.90799002 9.0625 5.328125 C8.381875 5.30234375 7.70125 5.2765625 7 5.25 C6.319375 5.23453125 5.63875 5.2190625 4.9375 5.203125 C3 5 3 5 0 4 C0 2.68 0 1.36 0 0 Z " fill="#2E0F02" transform="translate(170,64)"/>
<path d="M0 0 C0.66 0 1.32 0 2 0 C1.42365861 4.75481646 -0.55068521 7.97048212 -3 12 C-3.33 12 -3.66 12 -4 12 C-4.33 10.02 -4.66 8.04 -5 6 C-4.360625 5.7525 -3.72125 5.505 -3.0625 5.25 C-0.81258459 4.18437567 -0.81258459 4.18437567 -0.25 1.875 C-0.1675 1.25625 -0.085 0.6375 0 0 Z " fill="#E9862E" transform="translate(263,182)"/>
<path d="M0 0 C0.66 0.33 1.32 0.66 2 1 C1.01 2.485 1.01 2.485 0 4 C-0.99 4 -1.98 4 -3 4 C-3.66 5.32 -4.32 6.64 -5 8 C-6.32 7.67 -7.64 7.34 -9 7 C-6.03 4.69 -3.06 2.38 0 0 Z " fill="#DC7E2B" transform="translate(132,99)"/>
<path d="M0 0 C0.625 1.875 0.625 1.875 1 4 C0.34 4.66 -0.32 5.32 -1 6 C-1.64767793 8.57061311 -1.64767793 8.57061311 -2 11 C-2.66 11 -3.32 11 -4 11 C-4 11.66 -4 12.32 -4 13 C-4.66 13 -5.32 13 -6 13 C-4.58707905 8.1725201 -2.57025846 4.2837641 0 0 Z " fill="#E38937" transform="translate(37,64)"/>
<path d="M0 0 C-0.33 0.66 -0.66 1.32 -1 2 C0.65 2.33 2.3 2.66 4 3 C4 3.66 4 4.32 4 5 C2.53932801 4.54917531 1.08151968 4.08906463 -0.375 3.625 C-1.18710938 3.36976563 -1.99921875 3.11453125 -2.8359375 2.8515625 C-5 2 -5 2 -7 0 C-3.86650268 -1.04449911 -3.01031744 -0.93423645 0 0 Z " fill="#EA8A34" transform="translate(98,244)"/>
<path d="M0 0 C1.65 0 3.3 0 5 0 C5.66 1.32 6.32 2.64 7 4 C7.99 4 8.98 4 10 4 C10.33 4.99 10.66 5.98 11 7 C6.89188572 5.55007731 3.53144334 3.54592427 0 1 C0 0.67 0 0.34 0 0 Z " fill="#E38634" transform="translate(76,235)"/>
<path d="M0 0 C0.66 1.65 1.32 3.3 2 5 C-1.63 4.01 -5.26 3.02 -9 2 C-9 1.67 -9 1.34 -9 1 C-5.94152152 0.45627049 -3.11227195 0 0 0 Z " fill="#E2802A" transform="translate(222,106)"/>
<path d="M0 0 C0.99 0 1.98 0 3 0 C2.45912682 3.78611227 0.88277668 5.55400767 -2 8 C-2.66 8 -3.32 8 -4 8 C-4 7.34 -4 6.68 -4 6 C-3.34 6 -2.68 6 -2 6 C-1.7834375 5.071875 -1.7834375 5.071875 -1.5625 4.125 C-1 2 -1 2 0 0 Z " fill="#E88029" transform="translate(81,64)"/>
<path d="M0 0 C0.78375 0.04125 1.5675 0.0825 2.375 0.125 C1.00516497 3.28615776 0.3859362 4.1177092 -2.625 6.125 C-3.285 4.805 -3.945 3.485 -4.625 2.125 C-2.625 0.125 -2.625 0.125 0 0 Z " fill="#EA852D" transform="translate(172.625,148.875)"/>
<path d="M0 0 C0.9075 0.103125 1.815 0.20625 2.75 0.3125 C0.0901439 3.75466672 -3.15288286 4.30754674 -7.25 5.3125 C-4.05 0.38942308 -4.05 0.38942308 0 0 Z " fill="#EA832A" transform="translate(80.25,105.6875)"/>
<path d="M0 0 C1.65 0 3.3 0 5 0 C5.33 2.31 5.66 4.62 6 7 C3.95880212 5.38405168 1.95927063 3.7143618 0 2 C0 1.34 0 0.68 0 0 Z " fill="#EB872F" transform="translate(49,210)"/>
<path d="M0 0 C0.99 0.33 1.98 0.66 3 1 C2.67 1.99 2.34 2.98 2 4 C2.66 4.33 3.32 4.66 4 5 C3.01 5.66 2.02 6.32 1 7 C-2 3.25 -2 3.25 -2 1 C-1.34 0.67 -0.68 0.34 0 0 Z " fill="#EA882E" transform="translate(44,200)"/>
<path d="M0 0 C0.33 0 0.66 0 1 0 C1 1.65 1 3.3 1 5 C0.34 5 -0.32 5 -1 5 C-0.67 5.99 -0.34 6.98 0 8 C-1.98 8.99 -1.98 8.99 -4 10 C-3.52449439 8.51965236 -3.04448784 7.04074979 -2.5625 5.5625 C-2.29566406 4.73878906 -2.02882812 3.91507812 -1.75390625 3.06640625 C-1 1 -1 1 0 0 Z " fill="#DF7E2A" transform="translate(218,79)"/>
<path d="M0 0 C4.42857143 5.14285714 4.42857143 5.14285714 5 9 C3.68 9.33 2.36 9.66 1 10 C1.33 8.02 1.66 6.04 2 4 C1.34 4 0.68 4 0 4 C0 2.68 0 1.36 0 0 Z " fill="#E8872E" transform="translate(257,60)"/>
<path d="M0 0 C0.66 0.33 1.32 0.66 2 1 C-0.31 3.31 -2.62 5.62 -5 8 C-5.33 7.34 -5.66 6.68 -6 6 C-5.0950754 3.36749208 -4.34351194 2.22542971 -2 0.6875 C-1.34 0.460625 -0.68 0.23375 0 0 Z " fill="#E28435" transform="translate(238,219)"/>
<path d="M0 0 C2.97 0.495 2.97 0.495 6 1 C6 1.66 6 2.32 6 3 C7.32 3.33 8.64 3.66 10 4 C10 4.66 10 5.32 10 6 C6.40992874 4.66654496 3.20429093 3.1056769 0 1 C0 0.67 0 0.34 0 0 Z " fill="#D37A2D" transform="translate(128,156)"/>
<path d="M0 0 C0 0.66 0 1.32 0 2 C-0.99 2 -1.98 2 -3 2 C-3 2.66 -3 3.32 -3 4 C-6 6 -6 6 -8.1875 5.625 C-8.785625 5.41875 -9.38375 5.2125 -10 5 C-8.71186658 4.16121545 -7.41936744 3.32913217 -6.125 2.5 C-5.40570313 2.0359375 -4.68640625 1.571875 -3.9453125 1.09375 C-2 0 -2 0 0 0 Z " fill="#E88836" transform="translate(90,15)"/>
<path d="M0 0 C2.99324263 1.0975223 3.84610901 1.67682892 5.25 4.625 C5.4975 5.40875 5.745 6.1925 6 7 C4.68 7 3.36 7 2 7 C2 5.35 2 3.7 2 2 C1.34 2 0.68 2 0 2 C0 1.34 0 0.68 0 0 Z " fill="#DB802D" transform="translate(170,104)"/>
</svg>
