<?xml version="1.0" encoding="UTF-8"?>
<svg version="1.1" xmlns="http://www.w3.org/2000/svg" width="2000" height="282">
<path d="M0 0 C0.68900391 0.15033691 1.37800781 0.30067383 2.08789062 0.45556641 C26.9003491 6.1392956 47.89838973 19.57169712 66 37 C67.15048828 38.03833984 67.15048828 38.03833984 68.32421875 39.09765625 C89.99523614 59.29022003 104.78610828 92.91604191 106.16113281 122.46240234 C106.5444462 155.53878172 106.5444462 155.53878172 103 168 C102.76893555 168.81436523 102.53787109 169.62873047 102.29980469 170.46777344 C91.6339183 206.86594926 68.79468338 237.88727504 35.37548828 256.37646484 C1.81635663 274.30514898 -37.12726538 278.20080563 -73.64477539 267.18432617 C-100.27033821 258.59794837 -123.9413848 242.18552141 -141 220 C-141.98419922 218.77410156 -141.98419922 218.77410156 -142.98828125 217.5234375 C-157.40841514 198.85528821 -165.69234819 176.20648509 -169 153 C-169.13019531 152.12730469 -169.26039063 151.25460938 -169.39453125 150.35546875 C-173.54775811 116.96352479 -164.25439873 79.98631074 -143.6328125 53.2734375 C-142.75943702 52.17890401 -141.88168076 51.08785447 -141 50 C-140.52272461 49.40606445 -140.04544922 48.81212891 -139.55371094 48.20019531 C-129.78486221 36.15300923 -119.08656624 26.40087798 -106 18 C-104.94296875 17.319375 -103.8859375 16.63875 -102.796875 15.9375 C-72.26524734 -2.58405612 -34.69772508 -7.73580931 0 0 Z " fill="#FE841A" transform="translate(189,6)"/>
<path d="M0 0 C1.5631897 0.00785522 1.5631897 0.00785522 3.15795898 0.01586914 C4.28266602 0.0190918 5.40737305 0.02231445 6.56616211 0.02563477 C7.75016602 0.03401367 8.93416992 0.04239258 10.15405273 0.05102539 C11.34192383 0.05553711 12.52979492 0.06004883 13.75366211 0.06469727 C16.69967499 0.07652864 19.64558954 0.09301252 22.59155273 0.11352539 C22.93412109 0.95125488 23.27668945 1.78898437 23.62963867 2.65209961 C24.90865822 5.76155935 26.19954265 8.8655159 27.4987793 11.96655273 C28.05830031 13.30894933 28.61303541 14.65335127 29.1628418 15.99975586 C29.95465162 17.93640264 30.76347461 19.86515109 31.57592773 21.79321289 C32.05771484 22.95578613 32.53950195 24.11835937 33.03588867 25.31616211 C34.67317262 28.2602926 35.41272 29.16154231 38.59155273 30.11352539 C46.19519513 29.89933828 52.90944352 26.19145754 59.76147461 23.17602539 C60.70958008 22.77125977 61.65768555 22.36649414 62.63452148 21.94946289 C63.49070068 21.57354004 64.34687988 21.19761719 65.22900391 20.81030273 C67.92136135 20.01625622 69.02507905 20.02525187 71.59155273 21.11352539 C74.4265295 23.27957505 76.87988747 25.84647045 79.40405273 28.36352539 C80.10981445 29.03254883 80.81557617 29.70157227 81.54272461 30.39086914 C82.535625 31.37506836 82.535625 31.37506836 83.54858398 32.37915039 C84.15677979 32.97501953 84.76497559 33.57088867 85.39160156 34.18481445 C86.59155273 36.11352539 86.59155273 36.11352539 86.41308594 38.52172852 C85.56550928 41.19568804 84.59750764 43.73920682 83.48999023 46.31665039 C82.87897461 47.78811523 82.87897461 47.78811523 82.25561523 49.28930664 C81.40062874 51.32831989 80.53353508 53.36230124 79.65405273 55.39086914 C76.9792022 61.90762283 76.1674353 66.17994354 77.59155273 73.11352539 C78.84967773 73.44352539 80.10780273 73.77352539 81.40405273 74.11352539 C90.07024255 76.68453684 98.30237668 80.55268216 106.59155273 84.11352539 C106.59155273 92.36352539 106.59155273 100.61352539 106.59155273 109.11352539 C100.2755338 112.27153486 94.10589563 115.27701522 87.59155273 117.92602539 C86.84260742 118.23733398 86.09366211 118.54864258 85.32202148 118.86938477 C79.84730479 121.11352539 79.84730479 121.11352539 77.59155273 121.11352539 C75.76143649 129.52502119 78.01337222 134.71751861 81.59155273 142.36352539 C82.56180645 144.46744397 83.52065656 146.57666905 84.46655273 148.69165039 C84.89709961 149.61365234 85.32764648 150.5356543 85.77124023 151.4855957 C86.73452703 154.57155377 86.66071731 156.07737015 85.59155273 159.11352539 C84.10107422 161.05810547 84.10107422 161.05810547 82.21264648 162.88305664 C81.53911133 163.54370117 80.86557617 164.2043457 80.17163086 164.88500977 C79.46458008 165.55854492 78.7575293 166.23208008 78.02905273 166.92602539 C77.31813477 167.61889648 76.6072168 168.31176758 75.87475586 169.02563477 C74.12236961 170.73097709 72.36133805 172.42627715 70.59155273 174.11352539 C66.00678469 172.65649302 61.49269224 171.11981881 57.05639648 169.25415039 C56.30938477 168.94348633 55.56237305 168.63282227 54.79272461 168.31274414 C53.27466912 167.67618248 51.76161627 167.02756608 50.25366211 166.36743164 C44.8948423 164.17202923 41.24199674 163.53383137 35.59155273 165.11352539 C33.58525234 167.19876745 33.58525234 167.19876745 32.52905273 170.11352539 C32.06112305 171.18086914 31.59319336 172.24821289 31.11108398 173.34790039 C30.60328319 174.60258725 30.09688157 175.8578409 29.59155273 177.11352539 C28.9513866 178.6403066 28.30937209 180.16631377 27.66577148 181.69165039 C25.92996149 185.81614221 24.26574506 189.96152842 22.59155273 194.11352539 C14.34155273 194.11352539 6.09155273 194.11352539 -2.40844727 194.11352539 C-3.62081055 191.11645508 -3.62081055 191.11645508 -4.85766602 188.05883789 C-5.65444178 186.12426029 -6.45727823 184.1923059 -7.26074219 182.26049805 C-7.81498359 180.91871865 -8.36290693 179.57431104 -8.90429688 178.22729492 C-9.68468505 176.28884217 -10.48747931 174.36104855 -11.29516602 172.43383789 C-11.77171631 171.27126465 -12.2482666 170.10869141 -12.73925781 168.91088867 C-14.17946707 165.96871599 -14.17946707 165.96871599 -16.90844727 164.71337891 C-25.10670986 162.74627625 -33.293187 167.87084151 -40.57836914 171.13891602 C-42.00052734 171.75089844 -42.00052734 171.75089844 -43.45141602 172.37524414 C-44.73568481 172.94698364 -44.73568481 172.94698364 -46.04589844 173.53027344 C-48.40844727 174.11352539 -48.40844727 174.11352539 -50.50024414 173.41040039 C-53.91067288 171.09256551 -56.7673435 168.29021632 -59.72094727 165.42602539 C-60.37901367 164.8259668 -61.03708008 164.2259082 -61.71508789 163.60766602 C-66.35852664 159.0903813 -66.35852664 159.0903813 -66.58032227 154.75024414 C-64.84218957 149.35623902 -62.57813855 144.2801137 -60.20336914 139.14086914 C-57.55838002 133.18127339 -55.9637741 127.49086224 -58.40844727 121.11352539 C-60.15042278 120.11615675 -60.15042278 120.11615675 -62.34594727 119.62133789 C-67.54135826 118.10017754 -72.43158232 116.10815742 -77.40844727 113.98852539 C-78.69428711 113.44905273 -78.69428711 113.44905273 -80.00610352 112.89868164 C-86.27655767 110.24541499 -86.27655767 110.24541499 -87.40844727 109.11352539 C-87.4957095 107.33281293 -87.51543768 105.54869399 -87.50610352 103.76586914 C-87.50288086 102.6862793 -87.4996582 101.60668945 -87.49633789 100.49438477 C-87.48795898 99.35807617 -87.47958008 98.22176758 -87.47094727 97.05102539 C-87.46643555 95.91084961 -87.46192383 94.77067383 -87.45727539 93.59594727 C-87.44544474 90.76842188 -87.42896136 87.94099899 -87.40844727 85.11352539 C-80.55026301 81.90088758 -73.6705644 78.74814476 -66.72094727 75.73852539 C-65.56208008 75.23579102 -64.40321289 74.73305664 -63.20922852 74.21508789 C-60.40844727 73.11352539 -60.40844727 73.11352539 -58.40844727 73.11352539 C-55.64239519 66.30222599 -56.95343334 62.38261409 -59.73852539 55.71899414 C-60.47232422 54.05803711 -60.47232422 54.05803711 -61.22094727 52.36352539 C-62.16665297 50.14028742 -63.110734 47.91635747 -64.05297852 45.69165039 C-64.6926355 44.22840332 -64.6926355 44.22840332 -65.34521484 42.7355957 C-66.24286932 40.52186227 -66.91068504 38.44353487 -67.40844727 36.11352539 C-66.93536133 35.71262695 -66.46227539 35.31172852 -65.97485352 34.89868164 C-60.52664541 30.21513432 -55.43487723 25.24467265 -50.40844727 20.11352539 C-45.94477295 21.49320654 -41.63559467 22.98248358 -37.37719727 24.90649414 C-26.32213051 29.91782503 -26.32213051 29.91782503 -14.40844727 29.11352539 C-14.23974121 28.57985352 -14.07103516 28.04618164 -13.8972168 27.49633789 C-11.97828637 21.56906046 -9.7238595 15.84357756 -7.28344727 10.11352539 C-6.74397461 8.82768555 -6.74397461 8.82768555 -6.19360352 7.51586914 C-3.07467962 0.14492915 -3.07467962 0.14492915 0 0 Z " fill="#010000" transform="translate(147.408447265625,43.886474609375)"/>
<path d="M0 0 C16.5 0 33 0 50 0 C60.74373649 11.09255911 60.74373649 11.09255911 62.40625 16.296875 C65.03600965 23.47846385 68.86963594 29.36921159 73.125 35.6875 C74.47680381 37.79208248 75.82325249 39.90011522 77.1640625 42.01171875 C80.58324685 47.35834276 84.03355863 52.6839276 87.5 58 C93.11575339 66.61316177 98.66280607 75.26926431 104.19921875 83.93359375 C107.94900921 89.80031793 111.71013043 95.65909119 115.5 101.5 C120.15118625 108.67072845 124.76668565 115.86417243 129.375 123.0625 C130.05369141 124.12210937 130.73238281 125.18171875 131.43164062 126.2734375 C132.40520508 127.79517578 132.40520508 127.79517578 133.3984375 129.34765625 C134.01686523 130.3133252 134.63529297 131.27899414 135.27246094 132.27392578 C136.82740786 134.72764785 138.34255453 137.20151298 139.8515625 139.68359375 C141.6135713 143.0182533 141.6135713 143.0182533 144 144 C143.97494385 142.80065323 143.9498877 141.60130646 143.92407227 140.36561584 C143.68417836 128.85573291 143.44888953 117.34576303 143.21769714 105.83570194 C143.09880789 99.9235423 142.97849799 94.01141994 142.85449219 88.09936523 C142.23953746 58.72463223 141.89274121 29.382205 142 0 C154.21 0 166.42 0 179 0 C179 64.35 179 128.7 179 195 C164.15 195 149.3 195 134 195 C129.81242146 189.01774494 125.68182087 183.07760382 121.75 176.9375 C120.79692678 175.45699791 119.84380025 173.97653015 118.890625 172.49609375 C118.41173828 171.75085449 117.93285156 171.00561523 117.43945312 170.23779297 C115.1339274 166.65359201 112.81655313 163.07707928 110.5 159.5 C109.58327255 158.08337267 108.66660598 156.66670594 107.75 155.25 C107.29625 154.54875 106.8425 153.8475 106.375 153.125 C58.25 78.75 58.25 78.75 56.87329102 76.62182617 C55.96296961 75.21531891 55.05200682 73.80922653 54.14038086 72.40356445 C51.74601398 68.70972925 49.36554486 65.00782857 47.00390625 61.29296875 C46.51148438 60.52210937 46.0190625 59.75125 45.51171875 58.95703125 C44.5713716 57.48441213 43.63493157 56.00928801 42.703125 54.53125 C42.27644531 53.86480469 41.84976563 53.19835937 41.41015625 52.51171875 C41.04027588 51.92865967 40.67039551 51.34560059 40.28930664 50.74487305 C38.71635296 48.61612849 36.88326853 46.85533188 35 45 C35.01030746 45.54826541 35.02061493 46.09653082 35.03123474 46.66141033 C35.28555587 60.20188876 35.53589864 73.74243615 35.78230286 87.28306103 C35.90158983 93.8320525 36.02205692 100.38101723 36.14550781 106.92993164 C36.69814374 136.29229317 37.12381859 165.63177921 37 195 C24.79 195 12.58 195 0 195 C0 130.65 0 66.3 0 0 Z " fill="#FFFFFF" transform="translate(384,30)"/>
<path d="M0 0 C11.85192893 9.88615006 17.44072199 22.08942376 20 37 C20.05615762 38.99921142 20.07734149 41.00149599 20 43 C11.956327 45.5790489 3.90368511 48.10126213 -4.25 50.3125 C-5.45140625 50.63863281 -6.6528125 50.96476562 -7.890625 51.30078125 C-11 52 -11 52 -15 52 C-15.23783203 50.53240234 -15.23783203 50.53240234 -15.48046875 49.03515625 C-17.36875347 38.12073124 -19.89915964 29.7401511 -28.83203125 22.5 C-37.62728318 16.4146365 -47.72933463 14.61141295 -58.25 14.6875 C-59.07556396 14.69313965 -59.90112793 14.6987793 -60.75170898 14.70458984 C-73.14659768 14.94812331 -84.48196623 17.48196623 -93.5 26.5 C-96.63541524 31.72569207 -97.89087605 36.92376847 -97 43 C-94.99488825 49.75138894 -91.01445504 53.6053416 -85 57 C-72.25745607 62.61271629 -58.85629678 65.77481814 -45.375 69.0625 C8.26161558 82.19019609 8.26161558 82.19019609 21 103.125 C28.64056635 117.29412539 28.46798826 132.81555868 24 148 C17.77217328 163.85264982 6.92273084 172.90340753 -8.46484375 179.65234375 C-36.7432054 190.43249267 -75.20204332 191.29582628 -103.13671875 179.27734375 C-117.85574938 172.54977097 -127.75656681 163.04749015 -134.3125 148.0625 C-137.07761693 140.62160594 -138.14042444 132.91057651 -138 125 C-131.31442621 122.36947763 -124.52465321 120.30582562 -117.625 118.3125 C-116.53316406 117.99216797 -115.44132812 117.67183594 -114.31640625 117.34179688 C-106.25742937 115 -106.25742937 115 -104 115 C-103.84144531 116.03898438 -103.68289063 117.07796875 -103.51953125 118.1484375 C-101.71297924 129.25306604 -99.5813111 139.08664762 -90.37109375 146.46875 C-74.0768242 156.99157317 -53.48769706 157.83257308 -35 154 C-26.48207418 151.51130061 -18.31452072 148.66270887 -13.66015625 140.7109375 C-11.03359291 134.99794115 -10.19843392 130.08321014 -12 124 C-16.4574444 115.0851112 -24.75485227 111.81290301 -33.70358276 108.72750854 C-43.86665535 105.50783137 -54.3658461 103.25645353 -64.7175293 100.73217773 C-114.31273182 88.59203973 -114.31273182 88.59203973 -127.875 68.6875 C-135.26444276 56.10315897 -136.33577794 40.00837778 -132.8125 25.875 C-132.25658311 24.23286761 -131.65343931 22.60582049 -131 21 C-130.50693359 19.74896484 -130.50693359 19.74896484 -130.00390625 18.47265625 C-123.47163036 3.8032893 -110.97637169 -4.82207358 -96.53515625 -10.71484375 C-67.11149188 -21.4114024 -25.51826266 -19.71681344 0 0 Z " fill="#FFFFFF" transform="translate(1163,42)"/>
<path d="M0 0 C12.87 0 25.74 0 39 0 C39 69.3 39 138.6 39 210 C28.11 210 17.22 210 6 210 C5.87548201 195.30687714 6.35869444 180.67839259 7 166 C5.35 166 3.7 166 2 166 C1.92265625 166.91265625 1.92265625 166.91265625 1.84375 167.84375 C0.14142109 180.99810977 -7.17520165 195.27766465 -17.2734375 203.953125 C-29.90620463 213.4376631 -44.33992687 215.43172594 -59.75390625 213.5390625 C-73.47949129 211.14588357 -83.23854447 205.86366972 -93 196 C-93.93779297 195.11248047 -93.93779297 195.11248047 -94.89453125 194.20703125 C-110.37975629 178.3722526 -113.82316016 153.6819273 -114.25 132.5 C-113.75708014 108.03885185 -108.32658037 84.00974189 -90.984375 65.89453125 C-79.20656774 54.60393544 -65.1084632 51.13405314 -49.24902344 50.95019531 C-36.6180162 51.22990932 -25.10375697 54.97636756 -15.75 63.6875 C-6.51362917 73.69671002 -2.22710571 85.31868286 2 98 C3.65 98.33 5.3 98.66 7 99 C6.71253906 97.94167969 6.42507813 96.88335937 6.12890625 95.79296875 C4.69061524 90.02839974 3.83028488 84.18179681 2.9375 78.3125 C2.76412109 77.21744141 2.59074219 76.12238281 2.41210938 74.99414062 C2.24388672 73.89908203 2.07566406 72.80402344 1.90234375 71.67578125 C1.67792603 70.2203894 1.67792603 70.2203894 1.44897461 68.7355957 C0.27190664 58.94205738 -0.14519193 49.21334951 -0.09765625 39.35546875 C-0.0962413 38.21966873 -0.09482635 37.08386871 -0.09336853 35.91365051 C-0.08783677 32.33823852 -0.07529772 28.7628926 -0.0625 25.1875 C-0.05747616 22.74153737 -0.05291481 20.29557375 -0.04882812 17.84960938 C-0.03874694 11.89969456 -0.01915896 5.94991995 0 0 Z M-61 92 C-71.78174111 105.93207353 -75.92742203 123.50708761 -73.75683594 140.95458984 C-71.84471315 154.24794513 -68.62082547 166.98619251 -57.7578125 175.82421875 C-49.15924651 181.80268298 -41.36962848 182.88325375 -31 182 C-20.60555726 179.82475847 -12.96739347 172.28313332 -7.125 163.75 C1.45438586 149.36334116 2.88366105 132.67397845 -0.890625 116.59765625 C-5.35113506 102.13241059 -12.66521051 92.24503981 -26 85 C-37.79420365 80.15595207 -52.13031929 82.717776 -61 92 Z " fill="#FFFFFF" transform="translate(1614,15)"/>
<path d="M0 0 C116.61639824 0 116.61639824 0 139 21 C154.76708591 38.68677981 156.24790635 59.36213927 155 82 C153.77686193 95.96645879 146.49547206 109.80869902 136 119 C117.8126708 133.01799103 95.8125324 138.21937147 73.15625 138.09765625 C72.2600293 138.09664917 71.36380859 138.09564209 70.44042969 138.09460449 C67.12693991 138.08941489 63.81346852 138.07545398 60.5 138.0625 C53.075 138.041875 45.65 138.02125 38 138 C38 156.81 38 175.62 38 195 C25.46 195 12.92 195 0 195 C0 130.65 0 66.3 0 0 Z M38 30 C38 55.74 38 81.48 38 108 C74.42560808 110.54914709 74.42560808 110.54914709 107.5546875 96.578125 C115.3734312 88.4092883 117.37060604 77.00714019 117.20703125 66.0625 C116.4502388 54.86768337 113.30243967 46.01655581 105.10546875 38.19140625 C92.18676777 28.28624546 74.32832804 29.49054807 59 29.75 C48.605 29.87375 48.605 29.87375 38 30 Z " fill="#FFFFFF" transform="translate(752,30)"/>
<path d="M0 0 C15.68418207 13.58193477 24.22473061 31.39438286 26.40625 51.93359375 C27.46385798 76.71272648 26.61261926 100.84047212 10.40625 120.93359375 C9.83519531 121.69027344 9.26414062 122.44695312 8.67578125 123.2265625 C-1.8957436 136.3226306 -18.29117797 143.26307719 -34.59375 145.93359375 C-35.26019531 146.04445312 -35.92664062 146.1553125 -36.61328125 146.26953125 C-58.35011338 149.25380876 -81.47032336 145.77102095 -99.59375 132.93359375 C-115.97960055 120.20973253 -124.9081322 103.23753991 -128.08984375 82.66796875 C-131.01656343 59.10968194 -128.81021936 34.19884676 -115.59375 13.93359375 C-112.79787117 10.37807992 -109.77956498 7.14082597 -106.59375 3.93359375 C-105.94019531 3.23363281 -105.28664063 2.53367187 -104.61328125 1.8125 C-78.64282904 -23.95702028 -27.31851312 -21.76429735 0 0 Z M-78.51953125 24.39453125 C-90.11291604 38.58605689 -91.70159579 56.80064678 -90.3203125 74.421875 C-88.57039093 89.26319093 -83.44598055 101.72473284 -71.85546875 111.39453125 C-63.10259531 117.35071801 -52.74176638 118.67684007 -42.46875 117.24609375 C-34.19097771 115.66279712 -27.08987693 112.28739839 -21.71484375 105.59375 C-11.00270261 89.0657364 -9.11255156 68.64945772 -12.65625 49.49609375 C-15.27048103 39.10111823 -20.25519079 27.63477554 -29.05859375 21.10546875 C-29.87457031 20.63625 -30.69054688 20.16703125 -31.53125 19.68359375 C-32.75134766 18.96429688 -32.75134766 18.96429688 -33.99609375 18.23046875 C-48.21170934 11.13334939 -67.0087926 13.35910138 -78.51953125 24.39453125 Z " fill="#FFFFFF" transform="translate(1886.59375,82.06640625)"/>
<path d="M0 0 C12.87 0 25.74 0 39 0 C39.01458252 2.84004639 39.02916504 5.68009277 39.04418945 8.60620117 C39.0947122 18.02990101 39.16133779 27.45343866 39.23571491 36.87697887 C39.28028566 42.5858587 39.31957066 48.29466933 39.34643555 54.00366211 C39.37260166 59.52162757 39.41309687 65.03932488 39.46318626 70.55712318 C39.47976543 72.65361487 39.49133505 74.75015283 39.49761391 76.84670067 C39.37500053 100.66215041 39.37500053 100.66215041 50.75 120.875 C56.84695695 124.86147185 63.64516184 127.20159834 71 126 C81.24073463 123.18343688 86.76851879 119.11638442 92.296875 110.0546875 C102.10727222 92.45897505 103.09798219 74.05529647 103.31640625 54.39453125 C103.33702541 52.81841042 103.35802299 51.24229449 103.37937927 49.66618347 C103.4340884 45.55475895 103.48371918 41.44328886 103.53222656 37.33178711 C103.59174371 32.37890487 103.65768488 27.42610434 103.72252655 22.47328949 C103.81989054 14.98224367 103.90918658 7.49114098 104 0 C116.54 0 129.08 0 142 0 C142 51.15 142 102.3 142 155 C131.44 155 120.88 155 110 155 C109.97676214 150.43246876 109.95693704 145.86515118 109.94506836 141.29760742 C109.94010888 139.75105079 109.93333923 138.20449866 109.92456055 136.65795898 C109.86781909 126.38775504 110.16345988 116.23936428 111 106 C109.35 106 107.7 106 106 106 C105.9071875 107.5159375 105.9071875 107.5159375 105.8125 109.0625 C103.93722422 123.75216025 96.96855156 139.00556492 86 149 C73.55631915 158.18701478 59.42904986 160.41513944 44.27734375 158.5390625 C31.92720304 156.40322942 21.91976301 151.95004124 14 142 C-0.13407057 121.81260822 -0.48157544 96.71165671 -0.29296875 72.94921875 C-0.28735363 70.82689213 -0.28309264 68.70456156 -0.28010559 66.58222961 C-0.26880735 61.07340206 -0.23947496 55.56482271 -0.20599365 50.05609131 C-0.17496333 44.40396479 -0.16153079 38.75179704 -0.14648438 33.09960938 C-0.11458637 22.06628125 -0.06194679 11.03320036 0 0 Z " fill="#FFFFFF" transform="translate(1329,70)"/>
<path d="M0 0 C12.54 0 25.08 0 38 0 C38 53.46 38 106.92 38 162 C66.05 162 94.1 162 123 162 C123 172.89 123 183.78 123 195 C82.41 195 41.82 195 0 195 C0 130.65 0 66.3 0 0 Z " fill="#FFFFFF" transform="translate(605,30)"/>
<path d="M0 0 C7.59 0 15.18 0 23 0 C23 11.22 23 22.44 23 34 C36.53 34 50.06 34 64 34 C64 44.56 64 55.12 64 66 C50.47 66 36.94 66 23 66 C23.09089978 79.3126612 23.09089978 79.3126612 23.20898438 92.625 C23.26320851 98.05856689 23.31432235 103.49203283 23.34643555 108.92578125 C23.37254131 113.30908835 23.41299464 117.6920544 23.46318626 122.07514954 C23.47980595 123.74314617 23.49135063 125.41120173 23.49761391 127.07926941 C23.50730874 129.42495042 23.53543017 131.76976852 23.56762695 134.11523438 C23.56619186 134.7971283 23.56475677 135.47902222 23.5632782 136.18157959 C23.68109079 142.29364029 24.9583393 147.9583393 29.375 152.375 C36.71089486 156.91626825 44.52467716 157.14531044 52.89453125 155.39453125 C57.04933057 154.16740162 60.97219808 152.61112077 65 151 C65 163.21 65 175.42 65 188 C45.09603882 192.68328498 45.09603882 192.68328498 34.75 192.5 C33.07369507 192.48187256 33.07369507 192.48187256 31.36352539 192.46337891 C17.85728287 192.1379748 6.36608959 188.88060208 -3.25 178.875 C-15.38071266 163.64421633 -14.15714035 142.30581499 -14.09765625 123.984375 C-14.09578689 122.27516725 -14.09436544 120.56595897 -14.09336853 118.85675049 C-14.08958414 114.39840161 -14.07978959 109.94008628 -14.06866455 105.48175049 C-14.05836184 100.91622369 -14.05385209 96.35069137 -14.04882812 91.78515625 C-14.0381629 82.85675387 -14.02060006 73.92838499 -14 65 C-21.26 65 -28.52 65 -36 65 C-36 54.77 -36 44.54 -36 34 C-24.875 33.6875 -24.875 33.6875 -21.40185547 33.61206055 C-13.76145554 33.34971881 -13.76145554 33.34971881 -7 30 C-4.45767532 26.39807871 -3.47717488 23.38100352 -2.83203125 19.04296875 C-2.57583008 17.37524414 -2.57583008 17.37524414 -2.31445312 15.67382812 C-2.14880859 14.52333984 -1.98316406 13.37285156 -1.8125 12.1875 C-1.63525391 11.01767578 -1.45800781 9.84785156 -1.27539062 8.64257812 C-0.8405412 5.76316978 -0.41897196 2.88176143 0 0 Z " fill="#FFFFFF" transform="translate(1240,36)"/>
<path d="M0 0 C12.54 0 25.08 0 38 0 C38 51.15 38 102.3 38 155 C25.46 155 12.92 155 0 155 C0 103.85 0 52.7 0 0 Z " fill="#FFFFFF" transform="translate(1691,70)"/>
<path d="M0 0 C0.7425 0.00644531 1.485 0.01289062 2.25 0.01953125 C12.54453436 0.35734844 20.51229897 4.27405934 27.90625 11.38671875 C35.72323984 20.05268494 37.39284136 28.89005278 37.125 40.29296875 C36.61976763 49.76397064 31.90190799 57.85174577 24.96484375 64.1875 C22.97993827 65.76595366 20.95818685 67.14945595 18.8125 68.5 C18.19246094 68.91507812 17.57242188 69.33015625 16.93359375 69.7578125 C9.50518619 73.91539482 0.04766365 73.7291289 -8.1875 72.5 C-12.6592897 71.07760066 -16.32276139 69.1414119 -20.1875 66.5 C-20.87199219 66.04367188 -21.55648437 65.58734375 -22.26171875 65.1171875 C-29.25030682 59.81131803 -33.2146405 51.8959135 -35.1875 43.5 C-36.37039636 30.77698681 -34.32088239 21.41085531 -26.17578125 11.5390625 C-19.09998112 4.28254449 -10.1486208 -0.09276619 0 0 Z " fill="#FD841A" transform="translate(156.1875,104.5)"/>
<path d="M0 0 C27.72 0 55.44 0 84 0 C84 11.22 84 22.44 84 34 C56.28 34 28.56 34 0 34 C0 22.78 0 11.56 0 0 Z " fill="#FFFFFF" transform="translate(923,129)"/>
<path d="M0 0 C0.82564453 -0.020625 1.65128906 -0.04125 2.50195312 -0.0625 C9.48822077 -0.10654266 15.07868077 1.00219308 20.625 5.5625 C24.90642939 10.82254183 26.351919 15.39436476 26.25 22.125 C26.24097656 22.83245361 26.23195313 23.53990723 26.22265625 24.26879883 C26.04258846 29.69271578 25.53942817 34.15037901 21.8125 38.25 C12.74597264 45.607264 1.98379501 45.17847191 -9.1875 44.25 C-14.09799746 43.11491014 -17.08397206 41.35352794 -20.625 37.8125 C-25.35289018 30.05876011 -25.61451574 20.37352325 -23.5703125 11.6015625 C-21.28902876 6.33240272 -17.25829765 3.67606951 -12.1875 1.25 C-8.09768766 -0.11327078 -4.28400477 0.02614191 0 0 Z " fill="#FF851A" transform="translate(1951.1875,183.75)"/>
<path d="M0 0 C3.75785286 4.08942811 5.2501917 8.79499498 5.5 14.3125 C5.26519055 19.29241708 4.11919238 24.04897704 0.765625 27.85546875 C-5.74890152 33.58086448 -13.18564742 34.5917297 -21.57421875 34.46484375 C-29.20678738 33.95946145 -34.96560728 31.53642166 -40.1875 25.75 C-43.69551512 20.68286706 -43.4521081 15.26240319 -42.875 9.3125 C-41.55566839 4.75892117 -39.6817193 1.99372963 -36.0625 -1.0625 C-24.62873888 -6.89147626 -11.07613835 -6.50121164 0 0 Z " fill="#FFFFFF" transform="translate(1728.875,12.6875)"/>
</svg>
